Coordinates
version=1
nRows=8
nColumns=40
inDegrees=yes

Units are S.I. units (second, meters, Newtons, ...)
Angles are in degrees.

endheader
time	pelvis_tilt	pelvis_list	pelvis_rotation	pelvis_tx	pelvis_ty	pelvis_tz	hip_flexion_r	hip_adduction_r	hip_rotation_r	knee_angle_r	knee_angle_r_beta	ankle_angle_r	subtalar_angle_r	mtp_angle_r	hip_flexion_l	hip_adduction_l	hip_rotation_l	knee_angle_l	knee_angle_l_beta	ankle_angle_l	subtalar_angle_l	mtp_angle_l	lumbar_extension	lumbar_bending	lumbar_rotation	arm_flex_r	arm_add_r	arm_rot_r	elbow_flex_r	pro_sup_r	wrist_flex_r	wrist_dev_r	arm_flex_l	arm_add_l	arm_rot_l	elbow_flex_l	pro_sup_l	wrist_flex_l	wrist_dev_l
      0.66000000	     -2.06764152	      3.47925281	     -2.33147427	      1.28210730	      0.86708832	     -0.46064175	     -1.69671783	     -2.61202947	     -0.63369136	    -42.13137666	     -0.73533124	      4.64499677	     -3.69275779	    -11.14245168	     49.58997346	      0.85156926	      6.86146298	    -84.61617644	     -1.47683088	     -4.42338008	     19.12457382	     24.65190472	     -8.75846906	     -2.36806663	      3.77056630	    -11.56847485	    -14.35032102	      7.08028928	    104.39840413	     89.95437384	      0.00000000	      0.00000000	    -32.28492511	     21.32469438	      7.64024149	     82.26945601	     89.95437384	      0.00000000	      0.00000000
      0.67000000	     -2.18371085	      4.17791290	     -1.88962178	      1.33125301	      0.87220511	     -0.46157114	     -5.47044552	     -3.90128279	     -1.70608040	    -39.47463504	     -0.68896235	     -2.06007393	     -2.82823928	     -9.43890567	     51.40844669	      0.11098823	      7.20145461	    -79.29588508	     -1.38397428	     -5.68311032	     19.13036149	     24.77406633	     -8.16858157	     -3.48810595	      4.74611358	    -10.89690096	    -13.81507286	      8.16962752	    107.79712635	     89.95437384	      0.00000000	      0.00000000	    -34.80573111	     22.35995659	      9.26600468	     83.29045107	     89.95437384	      0.00000000	      0.00000000
      0.68000000	     -2.48204843	      4.68015265	     -1.72345340	      1.38051794	      0.87701859	     -0.46210382	     -8.72625071	     -4.94148812	     -2.53581797	    -36.57285570	     -0.63831675	    -10.11219732	     -1.83397309	     -7.00535848	     52.69917131	     -0.17044772	      7.78376608	    -73.31552275	     -1.27959726	     -7.10989916	     19.07201276	     25.04237110	     -7.38452686	     -4.41673039	      5.98005263	    -10.34798555	    -13.38819258	      9.15438010	    111.13225471	     89.95437384	      0.00000000	      0.00000000	    -37.20792774	     23.26831377	     10.84301368	     84.51857580	     89.95437384	      0.00000000	      0.00000000
      0.69000000	     -3.07283800	      4.77250140	     -1.82513274	      1.42957375	      0.88086871	     -0.46210397	    -11.25798701	     -5.37904597	     -2.37989699	    -33.92472199	     -0.59209810	    -17.59449205	     -0.45597774	     -4.75803913	     53.72054016	      0.06241369	      8.16721760	    -66.99710862	     -1.16932013	     -9.14914189	     18.98984138	     25.24947311	     -6.27265409	     -4.89906943	      7.49588936	    -10.04769607	    -13.16768200	     10.08323434	    114.52349737	     89.95437384	      0.00000000	      0.00000000	    -39.41338005	     24.01585538	     12.39748941	     85.84428976	     89.95437384	      0.00000000	      0.00000000
      0.70000000	     -3.51805115	      4.43873487	     -1.93842164	      1.47867530	      0.88449775	     -0.46174014	    -13.61185635	     -4.99729932	     -1.03130773	    -32.40035667	     -0.56549290	    -17.84036171	      1.85009957	     15.87949776	     53.96473122	      0.60603920	      8.31989083	    -60.30358753	     -1.05249615	    -11.01232707	     18.83462869	     25.16221106	     -5.33452303	     -4.92778409	      8.98508577	     -9.87640077	    -12.99578966	     10.86025346	    117.67635186	     89.95437384	      0.00000000	      0.00000000	    -41.27352078	     24.66276908	     13.82367108	     87.17386461	     89.95437384	      0.00000000	      0.00000000
      0.71000000	     -4.31881213	      4.28197783	     -2.35208063	      1.52742971	      0.88645066	     -0.46155737	    -14.70705691	     -4.99939165	      0.02561623	    -32.19670706	     -0.56193855	    -19.27971170	      0.29958576	     16.31901525	     54.08605188	      1.17982801	      8.85459628	    -53.33437556	     -0.93086046	    -13.36960254	     18.67408425	     25.14504734	     -3.97156263	     -5.09337545	     10.77944183	     -9.97742827	    -13.04952607	     11.48282427	    120.68162859	     89.95437384	      0.00000000	      0.00000000	    -42.77996533	     25.32263648	     15.04839897	     88.48087727	     89.95437384	      0.00000000	      0.00000000
      0.72000000	     -5.06764789	      4.03526813	     -2.92667406	      1.57627652	      0.88736380	     -0.46133447	    -15.10004810	     -5.06778947	      0.49358358	    -33.42594231	     -0.58339275	    -19.26112660	     -1.86502007	     16.44502729	     53.81465629	      1.93185081	      9.54735071	    -46.46874601	     -0.81103262	    -15.95488915	     18.45796868	     25.08516461	     -2.60240936	     -5.10605631	     12.64710573	    -10.29553251	    -13.20007393	     12.00445432	    123.25021950	     89.95437384	      0.00000000	      0.00000000	    -43.98116786	     25.90512699	     16.18718196	     89.74271364	     89.95437384	      0.00000000	      0.00000000
      0.73000000	     -5.66707567	      3.54081193	     -3.72582647	      1.62541102	      0.88733582	     -0.46068927	    -15.18946379	     -4.70106305	      1.56530444	    -35.68185721	     -0.62276589	    -18.15355507	     -5.53943133	     17.17683442	     53.16353293	      3.02071067	     10.29225655	    -40.13799501	     -0.70054017	    -17.95605577	     18.36599858	     24.83216587	     -1.32673059	     -4.80502285	     14.60848255	    -10.77442454	    -13.48721187	     12.42844116	    125.27657279	     89.95437384	      0.00000000	      0.00000000	    -44.91503732	     26.39953068	     17.24609265	     90.94899063	     89.95437384	      0.00000000	      0.00000000
